<?xml version="1.0" encoding="UTF-8" standalone="no"?>
<!-- Created with Inkscape (http://www.inkscape.org/) -->

<svg
   width="1920"
   height="1080"
   viewBox="0 0 1920 1080"
   version="1.1"
   id="svg1"
   inkscape:version="1.3.2 (091e20e, 2023-11-25)"
   sodipodi:docname="battle_of_gradients.svg"
   inkscape:export-filename="battle_of_gradients.png"
   inkscape:export-xdpi="96"
   inkscape:export-ydpi="96"
   xmlns:inkscape="http://www.inkscape.org/namespaces/inkscape"
   xmlns:sodipodi="http://sodipodi.sourceforge.net/DTD/sodipodi-0.dtd"
   xmlns="http://www.w3.org/2000/svg"
   xmlns:svg="http://www.w3.org/2000/svg"
   xmlns:ns2="http://www.iki.fi/pav/software/textext/">
  <sodipodi:namedview
     id="namedview1"
     pagecolor="#ffffff"
     bordercolor="#000000"
     borderopacity="0.25"
     inkscape:showpageshadow="2"
     inkscape:pageopacity="0.0"
     inkscape:pagecheckerboard="0"
     inkscape:deskcolor="#d1d1d1"
     inkscape:document-units="px"
     inkscape:zoom="0.6180637"
     inkscape:cx="733.74314"
     inkscape:cy="664.17102"
     inkscape:window-width="1512"
     inkscape:window-height="916"
     inkscape:window-x="0"
     inkscape:window-y="256"
     inkscape:window-maximized="0"
     inkscape:current-layer="layer1"
     showguides="true">
    <sodipodi:guide
       position="265.34482,657.71343"
       orientation="0,-1"
       id="guide4"
       inkscape:locked="false" />
  </sodipodi:namedview>
  <defs
     id="defs1">
    <marker
       style="overflow:visible"
       id="Triangle"
       refX="0"
       refY="0"
       orient="auto-start-reverse"
       inkscape:stockid="Triangle arrow"
       markerWidth="2"
       markerHeight="2"
       viewBox="0 0 1 1"
       inkscape:isstock="true"
       inkscape:collect="always"
       preserveAspectRatio="xMidYMid">
      <path
         transform="scale(0.5)"
         style="fill:context-stroke;fill-rule:evenodd;stroke:context-stroke;stroke-width:1pt"
         d="M 5.77,0 -2.88,5 V -5 Z"
         id="path135" />
    </marker>
  </defs>
  <g
     inkscape:label="Layer 1"
     inkscape:groupmode="layer"
     id="layer1">
    <path
       style="fill:none;stroke:#000000;stroke-width:2;stroke-dasharray:2, 2;stroke-dashoffset:0;marker-end:url(#Triangle)"
       d="m 434.74576,800.84746 0,-438.66198"
       id="path1"
       sodipodi:nodetypes="cc"
       inkscape:export-filename="pm_fail.png"
       inkscape:export-xdpi="96"
       inkscape:export-ydpi="96" />
    <circle
       id="path2"
       style="fill:#999999;stroke:none"
       cx="434.74576"
       cy="240.25424"
       r="1.5" />
    <path
       style="fill:none;stroke:#000000;marker-end:url(#Triangle);stroke-width:2;stroke-dasharray:2,2;stroke-dashoffset:0"
       d="M 379.83051,748.22034 H 1283.6441"
       id="path3" />
    <circle
       id="path4"
       style="fill:#999999;stroke:none"
       cx="1283.644"
       cy="748.22034"
       r="1.5" />
    <path
       style="fill:none;stroke:#d40000;stroke-width:3;stroke-dasharray:none"
       d="m 239.48044,749.72034 c 0,0 126.52229,-1.5 334.91693,-1.5 199.25821,0 310.35533,-325.93377 310.35533,-325.93377"
       id="path5"
       sodipodi:nodetypes="csc" />
    <path
       style="fill:none;stroke:#00aad4;stroke-width:3;stroke-dasharray:none"
       d="m 695.3163,422.28657 c 0,0 66.65791,325.93377 275.05255,325.93377 199.25825,0 310.35545,-325.93377 310.35545,-325.93377"
       id="path5-1"
       sodipodi:nodetypes="csc" />
    <text
       xml:space="preserve"
       style="font-size:37.3333px;fill:none;stroke:#00aad4;stroke-width:3;stroke-dasharray:none;stroke-dashoffset:0"
       x="884.54749"
       y="694.10321"
       id="text5"><tspan
         sodipodi:role="line"
         id="tspan5"
         x="884.54749"
         y="694.10321"
         style="font-size:37.3333px;fill:#00aad4;stroke:none">L</tspan></text>
    <text
       xml:space="preserve"
       style="font-size:37.3333px;fill:none;stroke:#00aad4;stroke-width:3;stroke-dasharray:none;stroke-dashoffset:0"
       x="516.57074"
       y="672.82068"
       id="text5-9"><tspan
         sodipodi:role="line"
         id="tspan5-1"
         x="516.57074"
         y="672.82068"
         style="font-size:37.3333px;fill:#aa0000;stroke:none">max(0, g)</tspan></text>
    <g
       transform="matrix(5.33332,0,0,5.33332,1250.5198,776.93019)"
       ns2:version="1.10.2"
       ns2:texconverter="pdflatex"
       ns2:pdfconverter="inkscape"
       ns2:text="$\\hat{y}$"
       ns2:preamble="/Users/michelelombardi/Library/Application Support/org.inkscape.Inkscape/config/inkscape/extensions/textext/default_packages.tex"
       ns2:scale="4.0"
       ns2:alignment="middle center"
       ns2:stroke-to-path="0"
       ns2:inkscapeversion="1.3.2"
       id="g5348"
       ns2:jacobian_sqrt="5.33332">
      <defs
         id="id-3a638c26-33ae-48e3-893e-6d57ef90bc76">
        <g
           id="id-1cbc2278-e695-4894-9209-edcea09d8b97">
          <g
             id="id-3600cb6f-c66d-433e-b841-eba83831f9f2">
            <path
               d="M 2.5,-6.921875 1.15625,-5.5625 1.328125,-5.390625 2.5,-6.40625 3.640625,-5.390625 3.8125,-5.5625 Z m 0,0"
               id="id-1230c8e5-f6e6-4f3c-ae76-1972b144662c" />
          </g>
          <g
             id="id-ad40979f-dcec-4164-b5b1-cd46b8b4e670">
            <path
               d="m 4.84375,-3.796875 c 0.046875,-0.140625 0.046875,-0.15625 0.046875,-0.234375 0,-0.171875 -0.140625,-0.265625 -0.296875,-0.265625 -0.09375,0 -0.25,0.0625 -0.34375,0.203125 -0.015625,0.0625 -0.109375,0.359375 -0.140625,0.546875 -0.078125,0.25 -0.140625,0.53125 -0.203125,0.796875 l -0.453125,1.796875 c -0.03125,0.140625 -0.46875,0.84375 -1.125,0.84375 -0.5,0 -0.609375,-0.4375 -0.609375,-0.8125 C 1.71875,-1.375 1.890625,-2 2.21875,-2.875 2.375,-3.28125 2.421875,-3.390625 2.421875,-3.59375 c 0,-0.4375 -0.3125,-0.8125 -0.8125,-0.8125 -0.953125,0 -1.3125,1.453125 -1.3125,1.53125 0,0.109375 0.09375,0.109375 0.109375,0.109375 0.109375,0 0.109375,-0.03125 0.15625,-0.1875 0.28125,-0.9375 0.671875,-1.234375 1.015625,-1.234375 0.078125,0 0.25,0 0.25,0.3125 0,0.25 -0.109375,0.515625 -0.171875,0.703125 -0.40625,1.0625 -0.578125,1.625 -0.578125,2.09375 0,0.890625 0.625,1.1875 1.21875,1.1875 0.390625,0 0.71875,-0.171875 1,-0.453125 -0.125,0.515625 -0.25,1.015625 -0.640625,1.546875 -0.265625,0.328125 -0.640625,0.625 -1.09375,0.625 -0.140625,0 -0.59375,-0.03125 -0.765625,-0.421875 0.15625,0 0.296875,0 0.421875,-0.125 C 1.328125,1.203125 1.421875,1.0625 1.421875,0.875 1.421875,0.5625 1.15625,0.53125 1.0625,0.53125 0.828125,0.53125 0.5,0.6875 0.5,1.171875 c 0,0.5 0.4375,0.875 1.0625,0.875 1.015625,0 2.046875,-0.90625 2.328125,-2.03125 z m 0,0"
               id="id-2d445c91-6104-4926-b531-786e367eb66b" />
          </g>
        </g>
      </defs>
      <g
         fill="#000000"
         fill-opacity="1"
         id="id-d8835c61-5ee3-4594-9600-6556e274a1dc"
         transform="translate(-149.009,-127.843)">
        <g
           transform="translate(149.396,134.765)"
           id="g9678">
          <path
             d="M 2.5,-6.921875 1.15625,-5.5625 1.328125,-5.390625 2.5,-6.40625 3.640625,-5.390625 3.8125,-5.5625 Z m 0,0"
             id="id-a8ef3e99-daa1-44be-89f9-298de3104369" />
        </g>
      </g>
      <g
         fill="#000000"
         fill-opacity="1"
         id="id-b5f795d3-d37a-4513-86e1-f106508659af"
         transform="translate(-149.009,-127.843)">
        <g
           transform="translate(148.712,134.765)"
           id="g9153">
          <path
             d="m 4.84375,-3.796875 c 0.046875,-0.140625 0.046875,-0.15625 0.046875,-0.234375 0,-0.171875 -0.140625,-0.265625 -0.296875,-0.265625 -0.09375,0 -0.25,0.0625 -0.34375,0.203125 -0.015625,0.0625 -0.109375,0.359375 -0.140625,0.546875 -0.078125,0.25 -0.140625,0.53125 -0.203125,0.796875 l -0.453125,1.796875 c -0.03125,0.140625 -0.46875,0.84375 -1.125,0.84375 -0.5,0 -0.609375,-0.4375 -0.609375,-0.8125 C 1.71875,-1.375 1.890625,-2 2.21875,-2.875 2.375,-3.28125 2.421875,-3.390625 2.421875,-3.59375 c 0,-0.4375 -0.3125,-0.8125 -0.8125,-0.8125 -0.953125,0 -1.3125,1.453125 -1.3125,1.53125 0,0.109375 0.09375,0.109375 0.109375,0.109375 0.109375,0 0.109375,-0.03125 0.15625,-0.1875 0.28125,-0.9375 0.671875,-1.234375 1.015625,-1.234375 0.078125,0 0.25,0 0.25,0.3125 0,0.25 -0.109375,0.515625 -0.171875,0.703125 -0.40625,1.0625 -0.578125,1.625 -0.578125,2.09375 0,0.890625 0.625,1.1875 1.21875,1.1875 0.390625,0 0.71875,-0.171875 1,-0.453125 -0.125,0.515625 -0.25,1.015625 -0.640625,1.546875 -0.265625,0.328125 -0.640625,0.625 -1.09375,0.625 -0.140625,0 -0.59375,-0.03125 -0.765625,-0.421875 0.15625,0 0.296875,0 0.421875,-0.125 C 1.328125,1.203125 1.421875,1.0625 1.421875,0.875 1.421875,0.5625 1.15625,0.53125 1.0625,0.53125 0.828125,0.53125 0.5,0.6875 0.5,1.171875 c 0,0.5 0.4375,0.875 1.0625,0.875 1.015625,0 2.046875,-0.90625 2.328125,-2.03125 z m 0,0"
             id="id-857bf557-bda8-4e01-9806-e67f0ad5d7f1" />
        </g>
      </g>
    </g>
  </g>
</svg>
